<svg width="1024" height="1024" viewBox="0 0 1024 1024" fill="none" xmlns="http://www.w3.org/2000/svg">
<path d="M159.091 524.273H134.095C133.918 522.205 133.445 520.329 132.677 518.644C131.939 516.96 130.905 515.513 129.575 514.301C128.275 513.06 126.694 512.115 124.833 511.465C122.972 510.785 120.859 510.446 118.495 510.446C114.359 510.446 110.858 511.45 107.992 513.459C105.156 515.468 102.999 518.349 101.522 522.101C100.074 525.854 99.35 530.359 99.35 535.618C99.35 541.173 100.089 545.826 101.566 549.579C103.073 553.301 105.244 556.108 108.081 557.999C110.917 559.86 114.33 560.791 118.318 560.791C120.593 560.791 122.632 560.51 124.434 559.949C126.236 559.358 127.802 558.516 129.132 557.423C130.461 556.33 131.54 555.015 132.367 553.479C133.224 551.913 133.8 550.155 134.095 548.205L159.091 548.382C158.795 552.223 157.717 556.138 155.856 560.126C153.994 564.085 151.35 567.749 147.923 571.117C144.525 574.456 140.315 577.144 135.292 579.183C130.269 581.222 124.434 582.241 117.786 582.241C109.455 582.241 101.98 580.454 95.3614 576.879C88.7727 573.304 83.558 568.044 79.717 561.101C75.9057 554.158 74 545.664 74 535.618C74 525.514 75.95 517.005 79.85 510.091C83.75 503.148 89.0091 497.904 95.6273 494.358C102.245 490.783 109.632 488.996 117.786 488.996C123.518 488.996 128.792 489.779 133.608 491.344C138.424 492.91 142.649 495.2 146.283 498.214C149.917 501.198 152.842 504.876 155.058 509.249C157.274 513.622 158.618 518.63 159.091 524.273Z" fill="#63001F"/>
<path d="M223.984 490.237H248.625V548.382C248.625 555.296 246.97 561.279 243.661 566.331C240.382 571.354 235.802 575.239 229.922 577.987C224.043 580.705 217.218 582.064 209.447 582.064C201.618 582.064 194.763 580.705 188.884 577.987C183.004 575.239 178.425 571.354 175.145 566.331C171.895 561.279 170.27 555.296 170.27 548.382V490.237H194.911V546.255C194.911 549.062 195.532 551.573 196.772 553.789C198.013 555.975 199.727 557.689 201.913 558.93C204.129 560.171 206.641 560.791 209.447 560.791C212.284 560.791 214.795 560.171 216.982 558.93C219.168 557.689 220.882 555.975 222.122 553.789C223.363 551.573 223.984 549.062 223.984 546.255V490.237Z" fill="#63001F"/>
<path d="M260.336 581V490.237H299.513C306.249 490.237 312.144 491.463 317.196 493.915C322.248 496.367 326.178 499.898 328.985 504.507C331.791 509.116 333.195 514.641 333.195 521.082C333.195 527.582 331.747 533.063 328.852 537.524C325.986 541.985 321.953 545.354 316.753 547.629C311.582 549.904 305.54 551.041 298.627 551.041C298.627 551.041 284.977 562.958 275.227 551.041C270.492 545.254 275.227 531.896 275.227 531.896H293.663C296.559 531.896 299.026 531.541 301.064 530.832C303.132 530.093 304.713 528.926 305.806 527.331C306.929 525.735 307.49 523.652 307.49 521.082C307.49 518.482 306.929 516.369 305.806 514.744C304.713 513.09 303.132 511.879 301.064 511.11C299.026 510.313 296.559 509.914 293.663 509.914H284.977V581H260.336ZM313.518 539.341L336.209 581H309.44L287.281 539.341H313.518Z" fill="#63001F"/>
<path d="M367.276 581H340.685L370.644 490.237H404.326L434.285 581H407.694L387.839 515.232H387.13L367.276 581Z" fill="#63001F"/>
<path d="M429.088 510.091V490.237H507.975V510.091H480.675V581H456.388V510.091H429.088Z" fill="#63001F"/>
<path d="M525.004 581L517.248 490.237H582.662V510.091H541.889V525.691H579.294V545.546H541.889V561.146H582.485V581H525.004Z" fill="#63001F"/>
<path d="M735.487 494.024H696.722C696.447 490.816 695.714 487.907 694.523 485.295C693.377 482.683 691.774 480.438 689.712 478.559C687.696 476.635 685.244 475.169 682.357 474.161C679.471 473.107 676.195 472.58 672.529 472.58C666.114 472.58 660.684 474.138 656.24 477.254C651.841 480.369 648.496 484.837 646.205 490.656C643.96 496.475 642.837 503.463 642.837 511.619C642.837 520.233 643.982 527.45 646.274 533.27C648.61 539.043 651.978 543.396 656.377 546.328C660.776 549.215 666.068 550.659 672.254 550.659C675.782 550.659 678.944 550.223 681.739 549.353C684.534 548.436 686.962 547.13 689.024 545.435C691.086 543.74 692.759 541.701 694.042 539.318C695.371 536.889 696.264 534.163 696.722 531.139L735.487 531.414C735.029 537.37 733.356 543.442 730.469 549.628C727.583 555.768 723.482 561.449 718.166 566.673C712.897 571.851 706.368 576.02 698.578 579.182C690.789 582.344 681.739 583.924 671.429 583.924C658.508 583.924 646.915 581.152 636.651 575.608C626.433 570.064 618.346 561.908 612.389 551.14C606.478 540.372 603.523 527.198 603.523 511.619C603.523 495.948 606.547 482.752 612.595 472.03C618.644 461.262 626.8 453.129 637.064 447.63C647.327 442.086 658.783 439.314 671.429 439.314C680.318 439.314 688.497 440.528 695.966 442.957C703.435 445.385 709.987 448.936 715.623 453.61C721.259 458.238 725.796 463.943 729.232 470.724C732.669 477.506 734.754 485.272 735.487 494.024ZM889.187 511.619C889.187 527.29 886.14 540.509 880.046 551.277C873.952 561.999 865.727 570.132 855.371 575.677C845.016 581.175 833.469 583.924 820.731 583.924C807.901 583.924 796.308 581.152 785.953 575.608C775.643 570.018 767.441 561.862 761.347 551.14C755.299 540.372 752.274 527.198 752.274 511.619C752.274 495.948 755.299 482.752 761.347 472.03C767.441 461.262 775.643 453.129 785.953 447.63C796.308 442.086 807.901 439.314 820.731 439.314C833.469 439.314 845.016 442.086 855.371 447.63C865.727 453.129 873.952 461.262 880.046 472.03C886.14 482.752 889.187 495.948 889.187 511.619ZM849.873 511.619C849.873 503.188 848.75 496.086 846.505 490.312C844.306 484.493 841.029 480.094 836.676 477.116C832.369 474.092 827.054 472.58 820.731 472.58C814.407 472.58 809.069 474.092 804.716 477.116C800.409 480.094 797.133 484.493 794.888 490.312C792.688 496.086 791.589 503.188 791.589 511.619C791.589 520.05 792.688 527.175 794.888 532.995C797.133 538.768 800.409 543.167 804.716 546.191C809.069 549.169 814.407 550.659 820.731 550.659C827.054 550.659 832.369 549.169 836.676 546.191C841.029 543.167 844.306 538.768 846.505 532.995C848.75 527.175 849.873 520.05 849.873 511.619ZM919.154 584.199C913.839 584.199 909.28 582.344 905.476 578.632C901.719 574.875 899.863 570.316 899.909 564.955C899.863 559.731 901.719 555.264 905.476 551.552C909.28 547.841 913.839 545.985 919.154 545.985C924.194 545.985 928.639 547.841 932.488 551.552C936.383 555.264 938.353 559.731 938.399 564.955C938.353 568.529 937.414 571.782 935.581 574.714C933.794 577.601 931.457 579.915 928.57 581.656C925.683 583.352 922.545 584.199 919.154 584.199Z" fill="#63001F"/>
</svg>
