<svg width="1024" height="1024" viewBox="0 0 1024 1024" fill="none" xmlns="http://www.w3.org/2000/svg">
<g clip-path="url(#clip0_5271_136)">
<path d="M401.293 459.55H284.77C283.943 449.909 281.74 441.163 278.159 433.312C274.715 425.461 269.894 418.712 263.696 413.065C257.636 407.28 250.267 402.873 241.59 399.843C232.913 396.675 223.065 395.091 212.046 395.091C192.763 395.091 176.442 399.774 163.082 409.14C149.859 418.506 139.805 431.935 132.918 449.427C126.169 466.919 122.794 487.924 122.794 512.44C122.794 538.334 126.238 560.028 133.124 577.52C140.149 594.874 150.272 607.959 163.495 616.774C176.717 625.451 192.626 629.79 211.22 629.79C221.825 629.79 231.329 628.481 239.731 625.864C248.132 623.11 255.432 619.184 261.63 614.088C267.828 608.992 272.856 602.863 276.712 595.701C280.707 588.401 283.392 580.206 284.77 571.115L401.293 571.942C399.916 589.847 394.888 608.097 386.211 626.691C377.534 645.147 365.206 662.226 349.229 677.928C333.39 693.492 313.763 706.026 290.348 715.529C266.933 725.033 239.731 729.785 208.741 729.785C169.899 729.785 135.053 721.452 104.2 704.786C73.4856 688.12 49.1755 663.604 31.2701 631.236C13.5024 598.869 4.61855 559.27 4.61855 512.44C4.61855 465.335 13.709 425.668 31.8899 393.438C50.0708 361.071 74.5875 336.623 105.44 320.095C136.292 303.429 170.726 295.096 208.741 295.096C235.461 295.096 260.046 298.746 282.497 306.046C304.948 313.346 324.644 324.02 341.585 338.069C358.526 351.98 372.162 369.128 382.492 389.513C392.822 409.897 399.089 433.243 401.293 459.55ZM863.305 512.44C863.305 559.545 854.145 599.282 835.827 631.649C817.508 663.879 792.785 688.327 761.657 704.993C730.529 721.521 695.82 729.785 657.53 729.785C618.964 729.785 584.118 721.452 552.99 704.786C522 687.983 497.345 663.466 479.027 631.236C460.846 598.869 451.755 559.27 451.755 512.44C451.755 465.335 460.846 425.668 479.027 393.438C497.345 361.071 522 336.623 552.99 320.095C584.118 303.429 618.964 295.096 657.53 295.096C695.82 295.096 730.529 303.429 761.657 320.095C792.785 336.623 817.508 361.071 835.827 393.438C854.145 425.668 863.305 465.335 863.305 512.44ZM745.129 512.44C745.129 487.097 741.754 465.749 735.005 448.394C728.394 430.902 718.546 417.679 705.461 408.727C692.514 399.636 676.537 395.091 657.53 395.091C638.523 395.091 622.477 399.636 609.392 408.727C596.445 417.679 586.597 430.902 579.848 448.394C573.237 465.749 569.931 487.097 569.931 512.44C569.931 537.783 573.237 559.201 579.848 576.693C586.597 594.048 596.445 607.27 609.392 616.361C622.477 625.313 638.523 629.79 657.53 629.79C676.537 629.79 692.514 625.313 705.461 616.361C718.546 607.27 728.394 594.048 735.005 576.693C741.754 559.201 745.129 537.783 745.129 512.44ZM953.383 730.611C937.406 730.611 923.701 725.033 912.269 713.877C900.975 702.582 895.397 688.878 895.535 672.763C895.397 657.061 900.975 643.632 912.269 632.476C923.701 621.319 937.406 615.741 953.383 615.741C968.534 615.741 981.894 621.319 993.463 632.476C1005.17 643.632 1011.09 657.061 1011.23 672.763C1011.09 683.506 1008.27 693.285 1002.76 702.1C997.389 710.778 990.364 717.733 981.687 722.967C973.01 728.063 963.575 730.611 953.383 730.611Z" fill="#63001F"/>
</g>
<defs>
<clipPath id="clip0_5271_136">
<rect width="1024" height="1024" fill="white"/>
</clipPath>
</defs>
</svg>
